<svg width="1440" height="166" viewBox="0 0 1440 166" fill="none" xmlns="http://www.w3.org/2000/svg">
<path d="M1519.56 38.7745C1519.69 45.3815 952.286 60.4999 727.015 42.8724C501.744 25.245 -77.4921 -8.46488 -79.1298 4.4999L-79.1299 121.886C-79.1299 121.886 495.272 125.564 718.779 144.032C942.286 162.5 1517.63 149.758 1517.63 149.758L1519.56 38.7745Z" fill="#005866"/>
<path d="M-79.2777 38.7746C-79.408 45.3815 488 60.4999 713.271 42.8725C938.543 25.245 1515.84 -2.06169 1517.48 10.9031L1519.42 121.886C1519.42 121.886 945.015 125.564 721.507 144.032C498 162.5 -79.2777 160 -79.2777 160L-79.2777 38.7746Z" fill="#FFB038"/>
</svg>
